<svg width="85" height="72" viewBox="0 0 350 72" fill="none" xmlns="http://www.w3.org/2000/svg">
    <path fill-rule="evenodd" clip-rule="evenodd" d="M60.166 71V21.9895L40.6639 71H34.2324L14.7303 21.9895V71H0V1H20.6432L37.4481 43.2939L54.2531 1H75V71H60.166ZM86 36C86 15.0261 101.396 0 122.448 0C143.604 0 159 15.0261 159 36C159 56.9739 143.604 72 122.448 72C101.396 72 86 56.9739 86 36ZM143 36C143 22.8721 134.704 13 121.948 13C109.193 13 101 22.8721 101 36C101 49.0228 109.193 59 121.948 59C134.704 59 143 49.0228 143 36ZM214.169 71L209.909 59.1409H180.195L175.831 71H159L185.805 1H204.299L231 71H214.169ZM195 16L184 46H206L195 16ZM247.16 71V14.1184H227V1H282V14.1184H261.944V71H247.16ZM333.169 71L328.909 59.1409H299.195L294.831 71H278L304.805 1H323.299L350 71H333.169ZM314 16L303 46H325L314 16Z" fill="black" />
</svg>